<?xml version="1.0" encoding="UTF-8" standalone="no"?>
<!-- Created with Inkscape (http://www.inkscape.org/) -->

<svg
   xmlns:dc="http://purl.org/dc/elements/1.1/"
   xmlns:cc="http://creativecommons.org/ns#"
   xmlns:rdf="http://www.w3.org/1999/02/22-rdf-syntax-ns#"
   xmlns:svg="http://www.w3.org/2000/svg"
   xmlns="http://www.w3.org/2000/svg"
   xmlns:sodipodi="http://sodipodi.sourceforge.net/DTD/sodipodi-0.dtd"
   xmlns:inkscape="http://www.inkscape.org/namespaces/inkscape"
   id="svg3004"
   version="1.1"
   inkscape:version="0.48.4 r9939"
   width="744.095"
   height="1052.3625"
   xml:space="preserve"
   sodipodi:docname="sandbox_scrartcl.svg"><metadata
     id="metadata3010"><rdf:RDF><cc:Work
         rdf:about=""><dc:format>image/svg+xml</dc:format><dc:type
           rdf:resource="http://purl.org/dc/dcmitype/StillImage" /><dc:title /></cc:Work></rdf:RDF></metadata><defs
     id="defs3008"><pattern
       patternUnits="userSpaceOnUse"
       x="0"
       y="0"
       width="4.98138"
       height="4.98138"
       id="pattern3136"><g
         id="g3138"><path
           d="M 0,0 3.08846,3.08846"
           style="fill:none;stroke:#000000;stroke-opacity:1;stroke-width:0.3985;stroke-linecap:butt;stroke-linejoin:miter;stroke-miterlimit:10;stroke-dasharray:none"
           id="path3140" /></g></pattern><filter
       inkscape:collect="always"
       id="filter3925"
       x="-0.11999619"
       width="1.2399924"
       y="-0.040000423"
       height="1.0800008"><feGaussianBlur
         inkscape:collect="always"
         stdDeviation="0.220489"
         id="feGaussianBlur3927" /></filter><filter
       inkscape:collect="always"
       id="filter3929"
       x="-0.10695253"
       width="1.2139051"
       y="-0.041695521"
       height="1.083391"><feGaussianBlur
         inkscape:collect="always"
         stdDeviation="0.21791713"
         id="feGaussianBlur3931" /></filter><filter
       inkscape:collect="always"
       id="filter3933"><feGaussianBlur
         inkscape:collect="always"
         stdDeviation="0.11958262"
         id="feGaussianBlur3935" /></filter></defs><sodipodi:namedview
     pagecolor="#ffffff"
     bordercolor="#666666"
     borderopacity="1"
     objecttolerance="10"
     gridtolerance="10"
     guidetolerance="10"
     inkscape:pageopacity="0"
     inkscape:pageshadow="2"
     inkscape:window-width="1280"
     inkscape:window-height="1002"
     id="namedview3006"
     showgrid="false"
     inkscape:zoom="32"
     inkscape:cx="376.63743"
     inkscape:cy="958.46485"
     inkscape:window-x="1920"
     inkscape:window-y="56"
     inkscape:window-maximized="1"
     inkscape:current-layer="g3012" /><g
     id="g3012"
     inkscape:groupmode="layer"
     inkscape:label="sandbox_scrartcl"
     transform="matrix(1.25,0,0,-1.25,0,1052.3625)"><path
       inkscape:connector-curvature="0"
       id="path3062"
       style="fill:none;stroke:#000000;stroke-width:0.79701;stroke-linecap:butt;stroke-linejoin:miter;stroke-miterlimit:10;stroke-opacity:1;stroke-dasharray:none"
       d="m 312.04887,768.18612 c 0,7.04512 -5.71104,12.75617 -12.75616,12.75617 -7.04512,0 -12.75616,-5.71105 -12.75616,-12.75617 0,-7.04512 5.71104,-12.75616 12.75616,-12.75616 7.04512,0 12.75616,5.71104 12.75616,12.75616 z" /><path
       style="font-size:medium;font-style:normal;font-variant:normal;font-weight:normal;font-stretch:normal;text-indent:0;text-align:start;text-decoration:none;line-height:normal;letter-spacing:normal;word-spacing:normal;text-transform:none;direction:ltr;block-progression:tb;writing-mode:lr-tb;text-anchor:start;baseline-shift:baseline;color:#000000;fill:#000000;fill-opacity:1;stroke:none;stroke-width:0.79701;marker:none;visibility:visible;display:inline;overflow:visible;enable-background:accumulate;font-family:Sans;-inkscape-font-specification:Sans"
       d="m 297.84375,761.5 c 1.44003,4.18298 2.85619,8.37435 4.28125,12.5625 l -3.71875,0 0,0.78125 c 1.60417,0 3.20833,0 4.8125,0 -1.43138,-4.17195 -2.83564,-8.35344 -4.25,-12.53125 l 4.3125,0 0,-0.8125 c -1.8125,0 -3.625,0 -5.4375,0 z"
       id="path3066"
       inkscape:connector-curvature="0"
       sodipodi:nodetypes="ccccccccc" /><path
       style="font-size:medium;font-style:normal;font-variant:normal;font-weight:normal;font-stretch:normal;text-indent:0;text-align:start;text-decoration:none;line-height:normal;letter-spacing:normal;word-spacing:normal;text-transform:none;direction:ltr;block-progression:tb;writing-mode:lr-tb;text-anchor:start;baseline-shift:baseline;color:#000000;fill:#000000;fill-opacity:1;stroke:none;stroke-width:0.79701;marker:none;visibility:visible;display:inline;overflow:visible;enable-background:accumulate;font-family:Sans;-inkscape-font-specification:Sans"
       d="m 298.40625,767.6875 c -1.97655,0 -3.5625,1.58596 -3.5625,3.5625 0,1.97653 1.58595,3.59375 3.5625,3.59375 l 0,-0.78125 c -1.54583,0 -2.78125,-1.26669 -2.78125,-2.8125 0,-1.54582 1.23542,-2.78125 2.78125,-2.78125 l 0,-0.78125 z"
       id="path3068"
       inkscape:connector-curvature="0" /><path
       style="font-size:medium;font-style:normal;font-variant:normal;font-weight:normal;font-stretch:normal;text-indent:0;text-align:start;text-decoration:none;line-height:normal;letter-spacing:normal;word-spacing:normal;text-transform:none;direction:ltr;block-progression:tb;writing-mode:lr-tb;text-anchor:start;baseline-shift:baseline;color:#000000;fill:#000000;fill-opacity:1;stroke:none;stroke-width:0.79701;marker:none;visibility:visible;display:inline;overflow:visible;enable-background:accumulate;font-family:Sans;-inkscape-font-specification:Sans"
       d="M 375.1875 84.15625 L 369.71875 100.5 L 370.78125 100.5 L 376.125 84.46875 L 375.1875 84.15625 z "
       id="path3070"
       transform="matrix(0.8,0,0,-0.8,0,841.89)" /><path
       inkscape:connector-curvature="0"
       id="path3076"
       style="fill:none;stroke:#000000;stroke-width:0.79701;stroke-linecap:butt;stroke-linejoin:miter;stroke-miterlimit:10;stroke-opacity:1;stroke-dasharray:none"
       d="m 278.03262,768.07061 -212.60107,0" /><path
       inkscape:connector-curvature="0"
       id="path3078"
       style="fill:none;stroke:#000000;stroke-width:0.79701;stroke-linecap:butt;stroke-linejoin:miter;stroke-miterlimit:10;stroke-opacity:1;stroke-dasharray:none"
       d="m 320.5528,768.07061 212.60107,0" /><path
       d="m 297.16632,689.7755 -7.08671,-14.17339 -7.0867,14.17339 7.0867,14.17339 7.08671,-14.17339 z"
       style="fill:none;stroke:#000000;stroke-width:0.79701;stroke-linecap:butt;stroke-linejoin:miter;stroke-miterlimit:10;stroke-opacity:1;stroke-dasharray:none"
       id="path3088"
       inkscape:connector-curvature="0" /><path
       d="m 315.59175,689.7755 -7.08667,-14.17339 -7.0867,14.17339 7.0867,14.17339 7.08667,-14.17339 z"
       style="fill:none;stroke:#000000;stroke-width:0.79701;stroke-linecap:butt;stroke-linejoin:miter;stroke-miterlimit:10;stroke-opacity:1;stroke-dasharray:none"
       id="path3090"
       inkscape:connector-curvature="0" /><path
       d="m 306.37894,708.20096 -7.0867,-14.17342 -7.0867,14.17342 7.0867,14.1734 7.0867,-14.1734 z"
       style="fill:none;stroke:#000000;stroke-width:0.79701;stroke-linecap:butt;stroke-linejoin:miter;stroke-miterlimit:10;stroke-opacity:1;stroke-dasharray:none"
       id="path3092"
       inkscape:connector-curvature="0" /><path
       d="m 306.37894,671.35004 -7.0867,-14.1734 -7.0867,14.1734 7.0867,14.17342 7.0867,-14.17342 z"
       style="fill:none;stroke:#000000;stroke-width:0.79701;stroke-linecap:butt;stroke-linejoin:miter;stroke-miterlimit:10;stroke-opacity:1;stroke-dasharray:none"
       id="path3094"
       inkscape:connector-curvature="0" /><path
       d="m 324.80439,671.35004 -7.08672,-14.1734 -7.08666,14.1734 7.08666,14.17342 7.08672,-14.17342 z"
       style="fill:none;stroke:#000000;stroke-width:0.79701;stroke-linecap:butt;stroke-linejoin:miter;stroke-miterlimit:10;stroke-opacity:1;stroke-dasharray:none"
       id="path3096"
       inkscape:connector-curvature="0" /><path
       d="m 287.95369,671.35004 -7.0867,-14.1734 -7.0867,14.1734 7.0867,14.17342 7.0867,-14.17342 z"
       style="fill:none;stroke:#000000;stroke-width:0.79701;stroke-linecap:butt;stroke-linejoin:miter;stroke-miterlimit:10;stroke-opacity:1;stroke-dasharray:none"
       id="path3098"
       inkscape:connector-curvature="0" /><path
       d="m 315.59175,652.92458 -7.08667,-14.1734 -7.0867,14.1734 7.0867,14.1734 7.08667,-14.1734 z"
       style="fill:none;stroke:#000000;stroke-width:0.79701;stroke-linecap:butt;stroke-linejoin:miter;stroke-miterlimit:10;stroke-opacity:1;stroke-dasharray:none"
       id="path3100"
       inkscape:connector-curvature="0" /><path
       d="m 297.16632,652.92458 -7.08671,-14.1734 -7.0867,14.1734 7.0867,14.1734 7.08671,-14.1734 z"
       style="fill:none;stroke:#000000;stroke-width:0.79701;stroke-linecap:butt;stroke-linejoin:miter;stroke-miterlimit:10;stroke-opacity:1;stroke-dasharray:none"
       id="path3102"
       inkscape:connector-curvature="0" /><path
       d="m 306.37894,634.49932 -7.0867,-14.17339 -7.0867,14.17339 7.0867,14.17341 7.0867,-14.17341 z"
       style="fill:none;stroke:#000000;stroke-width:0.79701;stroke-linecap:butt;stroke-linejoin:miter;stroke-miterlimit:10;stroke-opacity:1;stroke-dasharray:none"
       id="path3104"
       inkscape:connector-curvature="0" /><path
       d="m 269.52823,671.35004 -7.08672,-14.1734 -7.0867,14.1734 7.0867,14.17342 7.08672,-14.17342 z"
       style="fill:none;stroke:#000000;stroke-width:0.79701;stroke-linecap:butt;stroke-linejoin:miter;stroke-miterlimit:10;stroke-opacity:1;stroke-dasharray:none"
       id="path3106"
       inkscape:connector-curvature="0" /><path
       d="m 278.74085,689.7755 -7.0867,-14.17339 -7.0867,14.17339 7.0867,14.17339 7.0867,-14.17339 z"
       style="fill:none;stroke:#000000;stroke-width:0.79701;stroke-linecap:butt;stroke-linejoin:miter;stroke-miterlimit:10;stroke-opacity:1;stroke-dasharray:none"
       id="path3108"
       inkscape:connector-curvature="0" /><path
       d="m 278.74085,652.92458 -7.0867,-14.1734 -7.0867,14.1734 7.0867,14.1734 7.0867,-14.1734 z"
       style="fill:none;stroke:#000000;stroke-width:0.79701;stroke-linecap:butt;stroke-linejoin:miter;stroke-miterlimit:10;stroke-opacity:1;stroke-dasharray:none"
       id="path3110"
       inkscape:connector-curvature="0" /><path
       d="m 251.10276,671.35004 -7.0867,-14.1734 -7.08672,14.1734 7.08672,14.17342 7.0867,-14.17342 z"
       style="fill:none;stroke:#000000;stroke-width:0.79701;stroke-linecap:butt;stroke-linejoin:miter;stroke-miterlimit:10;stroke-opacity:1;stroke-dasharray:none"
       id="path3112"
       inkscape:connector-curvature="0" /><path
       d="m 343.22985,671.35004 -7.08669,-14.1734 -7.08671,14.1734 7.08671,14.17342 7.08669,-14.17342 z"
       style="fill:none;stroke:#000000;stroke-width:0.79701;stroke-linecap:butt;stroke-linejoin:miter;stroke-miterlimit:10;stroke-opacity:1;stroke-dasharray:none"
       id="path3114"
       inkscape:connector-curvature="0" /><path
       d="m 334.01723,689.7755 -7.0867,-14.17339 -7.0867,14.17339 7.0867,14.17339 7.0867,-14.17339 z"
       style="fill:none;stroke:#000000;stroke-width:0.79701;stroke-linecap:butt;stroke-linejoin:miter;stroke-miterlimit:10;stroke-opacity:1;stroke-dasharray:none"
       id="path3116"
       inkscape:connector-curvature="0" /><path
       d="m 334.01723,652.92458 -7.0867,-14.1734 -7.0867,14.1734 7.0867,14.1734 7.0867,-14.1734 z"
       style="fill:none;stroke:#000000;stroke-width:0.79701;stroke-linecap:butt;stroke-linejoin:miter;stroke-miterlimit:10;stroke-opacity:1;stroke-dasharray:none"
       id="path3118"
       inkscape:connector-curvature="0" /><path
       d="m 361.65534,671.35004 -7.08672,-14.1734 -7.0867,14.1734 7.0867,14.17342 7.08672,-14.17342 z"
       style="fill:none;stroke:#000000;stroke-width:0.79701;stroke-linecap:butt;stroke-linejoin:miter;stroke-miterlimit:10;stroke-opacity:1;stroke-dasharray:none"
       id="path3120"
       inkscape:connector-curvature="0" /><path
       inkscape:connector-curvature="0"
       id="path3172"
       style="fill:#0000ff;fill-opacity:1;fill-rule:nonzero;stroke:#0000ff;stroke-width:0.79701;stroke-linecap:butt;stroke-linejoin:miter;stroke-miterlimit:10;stroke-opacity:1;stroke-dasharray:none"
       d="m 297.16632,572.9045 -7.08671,-14.17339 -7.0867,14.17339 7.0867,14.17339 7.08671,-14.17339 z" /><path
       inkscape:connector-curvature="0"
       id="path3176"
       style="fill:#0000ff;fill-opacity:1;fill-rule:nonzero;stroke:#0000ff;stroke-width:0.79701;stroke-linecap:butt;stroke-linejoin:miter;stroke-miterlimit:10;stroke-opacity:1;stroke-dasharray:none"
       d="m 315.59175,572.9045 -7.08667,-14.17339 -7.0867,14.17339 7.0867,14.17339 7.08667,-14.17339 z" /><path
       inkscape:connector-curvature="0"
       id="path3180"
       style="fill:#0000ff;fill-opacity:1;fill-rule:nonzero;stroke:#0000ff;stroke-width:0.79701;stroke-linecap:butt;stroke-linejoin:miter;stroke-miterlimit:10;stroke-opacity:1;stroke-dasharray:none"
       d="m 306.37894,591.32996 -7.0867,-14.17342 -7.0867,14.17342 7.0867,14.1734 7.0867,-14.1734 z" /><path
       inkscape:connector-curvature="0"
       id="path3184"
       style="fill:#0000ff;fill-opacity:1;fill-rule:nonzero;stroke:#0000ff;stroke-width:0.79701;stroke-linecap:butt;stroke-linejoin:miter;stroke-miterlimit:10;stroke-opacity:1;stroke-dasharray:none"
       d="m 306.37894,554.47904 -7.0867,-14.1734 -7.0867,14.1734 7.0867,14.17342 7.0867,-14.17342 z" /><path
       inkscape:connector-curvature="0"
       id="path3188"
       style="fill:#0000ff;fill-opacity:1;fill-rule:nonzero;stroke:#0000ff;stroke-width:0.79701;stroke-linecap:butt;stroke-linejoin:miter;stroke-miterlimit:10;stroke-opacity:1;stroke-dasharray:none"
       d="m 324.80439,554.47904 -7.08672,-14.1734 -7.08666,14.1734 7.08666,14.17342 7.08672,-14.17342 z" /><path
       inkscape:connector-curvature="0"
       id="path3192"
       style="fill:#0000ff;fill-opacity:1;fill-rule:nonzero;stroke:#0000ff;stroke-width:0.79701;stroke-linecap:butt;stroke-linejoin:miter;stroke-miterlimit:10;stroke-opacity:1;stroke-dasharray:none"
       d="m 287.95369,554.47904 -7.0867,-14.1734 -7.0867,14.1734 7.0867,14.17342 7.0867,-14.17342 z" /><path
       inkscape:connector-curvature="0"
       id="path3196"
       style="fill:#0000ff;fill-opacity:1;fill-rule:nonzero;stroke:#0000ff;stroke-width:0.79701;stroke-linecap:butt;stroke-linejoin:miter;stroke-miterlimit:10;stroke-opacity:1;stroke-dasharray:none"
       d="m 315.59175,536.05358 -7.08667,-14.1734 -7.0867,14.1734 7.0867,14.1734 7.08667,-14.1734 z" /><path
       inkscape:connector-curvature="0"
       id="path3200"
       style="fill:#0000ff;fill-opacity:1;fill-rule:nonzero;stroke:#0000ff;stroke-width:0.79701;stroke-linecap:butt;stroke-linejoin:miter;stroke-miterlimit:10;stroke-opacity:1;stroke-dasharray:none"
       d="m 297.16632,536.05358 -7.08671,-14.1734 -7.0867,14.1734 7.0867,14.1734 7.08671,-14.1734 z" /><path
       inkscape:connector-curvature="0"
       id="path3204"
       style="fill:#0000ff;fill-opacity:1;fill-rule:nonzero;stroke:#0000ff;stroke-width:0.79701;stroke-linecap:butt;stroke-linejoin:miter;stroke-miterlimit:10;stroke-opacity:1;stroke-dasharray:none"
       d="m 306.37894,517.62832 -7.0867,-14.17339 -7.0867,14.17339 7.0867,14.17341 7.0867,-14.17341 z" /><path
       inkscape:connector-curvature="0"
       id="path3208"
       style="fill:#8080ff;fill-opacity:1;fill-rule:nonzero;stroke:#8080ff;stroke-width:0.79701;stroke-linecap:butt;stroke-linejoin:miter;stroke-miterlimit:10;stroke-opacity:1;stroke-dasharray:none"
       d="m 269.52823,554.47904 -7.08672,-14.1734 -7.0867,14.1734 7.0867,14.17342 7.08672,-14.17342 z" /><path
       inkscape:connector-curvature="0"
       id="path3212"
       style="fill:#8080ff;fill-opacity:1;fill-rule:nonzero;stroke:#8080ff;stroke-width:0.79701;stroke-linecap:butt;stroke-linejoin:miter;stroke-miterlimit:10;stroke-opacity:1;stroke-dasharray:none"
       d="m 278.74085,572.9045 -7.0867,-14.17339 -7.0867,14.17339 7.0867,14.17339 7.0867,-14.17339 z" /><path
       inkscape:connector-curvature="0"
       id="path3216"
       style="fill:#8080ff;fill-opacity:1;fill-rule:nonzero;stroke:#8080ff;stroke-width:0.79701;stroke-linecap:butt;stroke-linejoin:miter;stroke-miterlimit:10;stroke-opacity:1;stroke-dasharray:none"
       d="m 278.74085,536.05358 -7.0867,-14.1734 -7.0867,14.1734 7.0867,14.1734 7.0867,-14.1734 z" /><path
       inkscape:connector-curvature="0"
       id="path3220"
       style="fill:#8080ff;fill-opacity:1;fill-rule:nonzero;stroke:#8080ff;stroke-width:0.79701;stroke-linecap:butt;stroke-linejoin:miter;stroke-miterlimit:10;stroke-opacity:1;stroke-dasharray:none"
       d="m 251.10276,554.47904 -7.0867,-14.1734 -7.08672,14.1734 7.08672,14.17342 7.0867,-14.17342 z" /><path
       inkscape:connector-curvature="0"
       id="path3224"
       style="fill:#8080ff;fill-opacity:1;fill-rule:nonzero;stroke:#8080ff;stroke-width:0.79701;stroke-linecap:butt;stroke-linejoin:miter;stroke-miterlimit:10;stroke-opacity:1;stroke-dasharray:none"
       d="m 343.22985,554.47904 -7.08669,-14.1734 -7.08671,14.1734 7.08671,14.17342 7.08669,-14.17342 z" /><path
       inkscape:connector-curvature="0"
       id="path3228"
       style="fill:#8080ff;fill-opacity:1;fill-rule:nonzero;stroke:#8080ff;stroke-width:0.79701;stroke-linecap:butt;stroke-linejoin:miter;stroke-miterlimit:10;stroke-opacity:1;stroke-dasharray:none"
       d="m 334.01723,572.9045 -7.0867,-14.17339 -7.0867,14.17339 7.0867,14.17339 7.0867,-14.17339 z" /><path
       inkscape:connector-curvature="0"
       id="path3232"
       style="fill:#8080ff;fill-opacity:1;fill-rule:nonzero;stroke:#8080ff;stroke-width:0.79701;stroke-linecap:butt;stroke-linejoin:miter;stroke-miterlimit:10;stroke-opacity:1;stroke-dasharray:none"
       d="m 334.01723,536.05358 -7.0867,-14.1734 -7.0867,14.1734 7.0867,14.1734 7.0867,-14.1734 z" /><path
       inkscape:connector-curvature="0"
       id="path3236"
       style="fill:#b3b3ff;fill-opacity:1;fill-rule:nonzero;stroke:#b3b3ff;stroke-width:0.79701;stroke-linecap:butt;stroke-linejoin:miter;stroke-miterlimit:10;stroke-opacity:1;stroke-dasharray:none"
       d="m 251.10276,554.47904 -7.0867,-14.1734 -7.08672,14.1734 7.08672,14.17342 7.0867,-14.17342 z" /><path
       inkscape:connector-curvature="0"
       id="path3240"
       style="fill:#b3b3ff;fill-opacity:1;fill-rule:nonzero;stroke:#b3b3ff;stroke-width:0.79701;stroke-linecap:butt;stroke-linejoin:miter;stroke-miterlimit:10;stroke-opacity:1;stroke-dasharray:none"
       d="m 361.65534,554.47904 -7.08672,-14.1734 -7.0867,14.1734 7.0867,14.17342 7.08672,-14.17342 z" /></g></svg>